<svg xmlns="http://www.w3.org/2000/svg" xmlns:xlink="http://www.w3.org/1999/xlink" width="40" zoomAndPan="magnify" viewBox="0 0 30 30.000001" height="40" preserveAspectRatio="xMidYMid meet" version="1.0"><defs><clipPath id="73ab59fffa"><path d="M 0.484375 0.957031 L 10 0.957031 L 10 15 L 0.484375 15 Z M 0.484375 0.957031 " clip-rule="nonzero"/></clipPath><clipPath id="4fafdfd1b8"><path d="M 6 0.957031 L 13 0.957031 L 13 15 L 6 15 Z M 6 0.957031 " clip-rule="nonzero"/></clipPath><clipPath id="8a4615f322"><path d="M 12 0.957031 L 18 0.957031 L 18 15 L 12 15 Z M 12 0.957031 " clip-rule="nonzero"/></clipPath><clipPath id="04c842522b"><path d="M 17 0.957031 L 24 0.957031 L 24 15 L 17 15 Z M 17 0.957031 " clip-rule="nonzero"/></clipPath><clipPath id="26e96666a5"><path d="M 21 0.957031 L 29.515625 0.957031 L 29.515625 15 L 21 15 Z M 21 0.957031 " clip-rule="nonzero"/></clipPath><clipPath id="0914c67467"><path d="M 3 15 L 28 15 L 28 27.8125 L 3 27.8125 Z M 3 15 " clip-rule="nonzero"/></clipPath></defs><path fill="#f8cf41" d="M 19.777344 16.539062 L 22.984375 17.398438 C 23.171875 17.449219 23.269531 17.570312 23.273438 17.765625 C 23.28125 17.960938 23.191406 18.089844 23.003906 18.148438 L 21.429688 18.671875 L 20.90625 20.25 C 20.84375 20.433594 20.71875 20.523438 20.523438 20.515625 C 20.328125 20.511719 20.207031 20.414062 20.15625 20.226562 L 19.296875 17.019531 C 19.277344 16.953125 19.277344 16.882812 19.296875 16.816406 C 19.3125 16.75 19.347656 16.691406 19.398438 16.640625 C 19.449219 16.589844 19.507812 16.558594 19.574219 16.539062 C 19.640625 16.519531 19.710938 16.519531 19.777344 16.539062 Z M 19.777344 16.539062 " fill-opacity="1" fill-rule="nonzero"/><g clip-path="url(#73ab59fffa)"><path fill="#6540d7" d="M 9.121094 0.972656 L 7.707031 6.179688 L 7.378906 7.398438 L 6.027344 12.382812 C 5.816406 13.160156 5.21875 13.761719 4.457031 14.035156 C 4.15625 14.144531 3.847656 14.199219 3.53125 14.199219 C 3.433594 14.199219 3.335938 14.195312 3.238281 14.179688 C 1.5625 14.011719 0.484375 12.367188 1.144531 10.871094 L 5.539062 0.972656 Z M 9.121094 0.972656 " fill-opacity="1" fill-rule="nonzero"/></g><g clip-path="url(#4fafdfd1b8)"><path fill="#f8cf41" d="M 12.933594 0.972656 L 11.601562 12.257812 C 11.53125 12.820312 11.277344 13.285156 10.839844 13.644531 C 10.390625 14.015625 9.871094 14.203125 9.285156 14.199219 C 7.765625 14.199219 6.652344 12.863281 7.023438 11.488281 L 9.871094 0.972656 Z M 12.933594 0.972656 " fill-opacity="1" fill-rule="nonzero"/></g><g clip-path="url(#8a4615f322)"><path fill="#6540d7" d="M 15.199219 14.199219 C 13.546875 14.199219 12.261719 12.863281 12.445312 11.328125 L 13.667969 0.972656 L 16.734375 0.972656 L 17.953125 11.328125 C 18.132812 12.863281 16.847656 14.199219 15.199219 14.199219 Z M 15.199219 14.199219 " fill-opacity="1" fill-rule="nonzero"/></g><g clip-path="url(#04c842522b)"><path fill="#f8cf41" d="M 21.109375 14.199219 C 19.921875 14.199219 18.921875 13.367188 18.792969 12.257812 L 17.460938 0.972656 L 20.527344 0.972656 L 23.371094 11.488281 C 23.746094 12.863281 22.628906 14.199219 21.109375 14.199219 Z M 21.109375 14.199219 " fill-opacity="1" fill-rule="nonzero"/></g><g clip-path="url(#26e96666a5)"><path fill="#6540d7" d="M 27.160156 14.179688 C 27.0625 14.195312 26.964844 14.199219 26.867188 14.199219 C 26.550781 14.199219 26.242188 14.144531 25.945312 14.035156 C 25.183594 13.761719 24.578125 13.160156 24.367188 12.382812 L 23.015625 7.398438 L 22.6875 6.179688 L 21.277344 0.972656 L 24.863281 0.972656 L 29.25 10.871094 C 29.914062 12.367188 28.835938 14.011719 27.160156 14.179688 Z M 27.160156 14.179688 " fill-opacity="1" fill-rule="nonzero"/></g><g clip-path="url(#0914c67467)"><path fill="#6540d7" d="M 25.945312 15.148438 L 25.945312 22.25 L 4.457031 22.25 L 4.457031 15.148438 L 3.238281 15.148438 L 3.238281 24.726562 C 3.238281 25.167969 3.324219 25.589844 3.492188 26 C 3.660156 26.40625 3.902344 26.765625 4.214844 27.078125 C 4.527344 27.390625 4.886719 27.632812 5.292969 27.800781 C 5.703125 27.96875 6.125 28.054688 6.566406 28.054688 L 23.832031 28.054688 C 24.273438 28.054688 24.699219 27.96875 25.105469 27.800781 C 25.511719 27.632812 25.875 27.390625 26.1875 27.078125 C 26.496094 26.765625 26.738281 26.40625 26.90625 26 C 27.078125 25.589844 27.160156 25.167969 27.160156 24.726562 L 27.160156 15.148438 Z M 15.199219 26.578125 C 15.011719 26.578125 14.828125 26.542969 14.652344 26.472656 C 14.480469 26.398438 14.324219 26.296875 14.191406 26.160156 C 14.058594 26.027344 13.953125 25.875 13.882812 25.699219 C 13.808594 25.523438 13.773438 25.34375 13.773438 25.152344 C 13.773438 24.964844 13.808594 24.78125 13.882812 24.605469 C 13.953125 24.433594 14.058594 24.277344 14.191406 24.144531 C 14.324219 24.011719 14.480469 23.90625 14.652344 23.835938 C 14.828125 23.761719 15.011719 23.726562 15.199219 23.726562 C 15.390625 23.726562 15.570312 23.761719 15.746094 23.835938 C 15.921875 23.90625 16.074219 24.011719 16.207031 24.144531 C 16.34375 24.277344 16.445312 24.433594 16.519531 24.605469 C 16.589844 24.78125 16.625 24.964844 16.625 25.152344 C 16.625 25.34375 16.589844 25.523438 16.519531 25.699219 C 16.445312 25.875 16.34375 26.027344 16.207031 26.160156 C 16.074219 26.296875 15.921875 26.398438 15.746094 26.472656 C 15.570312 26.542969 15.390625 26.578125 15.199219 26.578125 Z M 15.199219 26.578125 " fill-opacity="1" fill-rule="nonzero"/></g></svg>